<?xml version="1.0" encoding="UTF-8" standalone="no"?>
<!DOCTYPE svg PUBLIC "-//W3C//DTD SVG 1.1//EN"
 "http://www.w3.org/Graphics/SVG/1.1/DTD/svg11.dtd">
<!-- Generated by graphviz version 7.0.5 (20221231.0122)
 -->
<!-- Title: snakemake_dag Pages: 1 -->
<svg width="692pt" height="575pt"
 viewBox="0.00 0.00 692.25 575.00" xmlns="http://www.w3.org/2000/svg" xmlns:xlink="http://www.w3.org/1999/xlink">
<g id="graph0" class="graph" transform="scale(1 1) rotate(0) translate(4 571)">
<title>snakemake_dag</title>
<polygon fill="white" stroke="none" points="-4,4 -4,-571 688.25,-571 688.25,4 -4,4"/>
<!-- 0 -->
<g id="node1" class="node">
<title>0</title>
<path fill="none" stroke="#d8cb56" stroke-width="2" d="M361,-36C361,-36 331,-36 331,-36 325,-36 319,-30 319,-24 319,-24 319,-12 319,-12 319,-6 325,0 331,0 331,0 361,0 361,0 367,0 373,-6 373,-12 373,-12 373,-24 373,-24 373,-30 367,-36 361,-36"/>
<text text-anchor="middle" x="346" y="-15.5" font-family="sans" font-size="10.00">all</text>
</g>
<!-- 1 -->
<g id="node2" class="node">
<title>1</title>
<path fill="none" stroke="#566bd8" stroke-width="2" stroke-dasharray="5,2" d="M478,-108C478,-108 448,-108 448,-108 442,-108 436,-102 436,-96 436,-96 436,-84 436,-84 436,-78 442,-72 448,-72 448,-72 478,-72 478,-72 484,-72 490,-78 490,-84 490,-84 490,-96 490,-96 490,-102 484,-108 478,-108"/>
<text text-anchor="middle" x="463" y="-87.5" font-family="sans" font-size="10.00">plots</text>
</g>
<!-- 1&#45;&gt;0 -->
<g id="edge1" class="edge">
<title>1&#45;&gt;0</title>
<path fill="none" stroke="grey" stroke-width="2" d="M435.27,-72.41C420.23,-63.41 401.39,-52.14 384.9,-42.27"/>
<polygon fill="grey" stroke="grey" stroke-width="2" points="386.91,-39.4 376.53,-37.27 383.32,-45.4 386.91,-39.4"/>
</g>
<!-- 2 -->
<g id="node3" class="node">
<title>2</title>
<path fill="none" stroke="#b6d856" stroke-width="2" stroke-dasharray="5,2" d="M572.5,-180C572.5,-180 505.5,-180 505.5,-180 499.5,-180 493.5,-174 493.5,-168 493.5,-168 493.5,-156 493.5,-156 493.5,-150 499.5,-144 505.5,-144 505.5,-144 572.5,-144 572.5,-144 578.5,-144 584.5,-150 584.5,-156 584.5,-156 584.5,-168 584.5,-168 584.5,-174 578.5,-180 572.5,-180"/>
<text text-anchor="middle" x="539" y="-159.5" font-family="sans" font-size="10.00">make_PA_table</text>
</g>
<!-- 2&#45;&gt;1 -->
<g id="edge3" class="edge">
<title>2&#45;&gt;1</title>
<path fill="none" stroke="grey" stroke-width="2" d="M519.82,-143.34C511.34,-135.52 501.18,-126.16 491.81,-117.53"/>
<polygon fill="grey" stroke="grey" stroke-width="2" points="494.39,-115.15 484.66,-110.95 489.65,-120.3 494.39,-115.15"/>
</g>
<!-- 3 -->
<g id="node4" class="node">
<title>3</title>
<path fill="none" stroke="#56d8a9" stroke-width="2" stroke-dasharray="5,2" d="M242,-567C242,-567 138,-567 138,-567 132,-567 126,-561 126,-555 126,-555 126,-543 126,-543 126,-537 132,-531 138,-531 138,-531 242,-531 242,-531 248,-531 254,-537 254,-543 254,-543 254,-555 254,-555 254,-561 248,-567 242,-567"/>
<text text-anchor="middle" x="190" y="-546.5" font-family="sans" font-size="10.00">fetch_fasta_from_seed</text>
</g>
<!-- 3&#45;&gt;2 -->
<g id="edge4" class="edge">
<title>3&#45;&gt;2</title>
<path fill="none" stroke="grey" stroke-width="2" d="M248.5,-530C342.08,-497.52 521.57,-419.12 587,-279 598.85,-253.63 597.07,-242.13 587,-216 583.37,-206.58 577.2,-197.79 570.47,-190.19"/>
<polygon fill="grey" stroke="grey" stroke-width="2" points="573.05,-187.83 563.57,-183.09 568.03,-192.7 573.05,-187.83"/>
</g>
<!-- 5 -->
<g id="node6" class="node">
<title>5</title>
<path fill="none" stroke="#567bd8" stroke-width="2" stroke-dasharray="5,2" d="M565.5,-279C565.5,-279 500.5,-279 500.5,-279 494.5,-279 488.5,-273 488.5,-267 488.5,-267 488.5,-228 488.5,-228 488.5,-222 494.5,-216 500.5,-216 500.5,-216 565.5,-216 565.5,-216 571.5,-216 577.5,-222 577.5,-228 577.5,-228 577.5,-267 577.5,-267 577.5,-273 571.5,-279 565.5,-279"/>
<text text-anchor="middle" x="533" y="-267" font-family="sans" font-size="10.00">find_family</text>
<text text-anchor="middle" x="533" y="-256" font-family="sans" font-size="10.00">coverage: 97.9</text>
<text text-anchor="middle" x="533" y="-245" font-family="sans" font-size="10.00">eval: 3e&#45;146</text>
<text text-anchor="middle" x="533" y="-234" font-family="sans" font-size="10.00">pid: 63.0</text>
<text text-anchor="middle" x="533" y="-223" font-family="sans" font-size="10.00">seed: DpdA1</text>
</g>
<!-- 3&#45;&gt;5 -->
<g id="edge9" class="edge">
<title>3&#45;&gt;5</title>
<path fill="none" stroke="grey" stroke-width="2" d="M223.96,-530.14C264.4,-508 332.86,-467.69 384,-423 430.34,-382.51 475.01,-327.34 503.15,-289.96"/>
<polygon fill="grey" stroke="grey" stroke-width="2" points="505.66,-292.45 508.83,-282.34 500.04,-288.27 505.66,-292.45"/>
</g>
<!-- 8 -->
<g id="node9" class="node">
<title>8</title>
<path fill="none" stroke="#a7d856" stroke-width="2" stroke-dasharray="5,2" d="M566,-495C566,-495 512,-495 512,-495 506,-495 500,-489 500,-483 500,-483 500,-471 500,-471 500,-465 506,-459 512,-459 512,-459 566,-459 566,-459 572,-459 578,-465 578,-471 578,-471 578,-483 578,-483 578,-489 572,-495 566,-495"/>
<text text-anchor="middle" x="539" y="-474.5" font-family="sans" font-size="10.00">merge_fasta</text>
</g>
<!-- 3&#45;&gt;8 -->
<g id="edge13" class="edge">
<title>3&#45;&gt;8</title>
<path fill="none" stroke="grey" stroke-width="2" d="M254.83,-535C321.82,-521.56 425.07,-500.85 486.93,-488.44"/>
<polygon fill="grey" stroke="grey" stroke-width="2" points="487.4,-491.92 496.51,-486.52 486.02,-485.06 487.4,-491.92"/>
</g>
<!-- 9 -->
<g id="node10" class="node">
<title>9</title>
<path fill="none" stroke="#567bd8" stroke-width="2" stroke-dasharray="5,2" d="M341.5,-279C341.5,-279 270.5,-279 270.5,-279 264.5,-279 258.5,-273 258.5,-267 258.5,-267 258.5,-228 258.5,-228 258.5,-222 264.5,-216 270.5,-216 270.5,-216 341.5,-216 341.5,-216 347.5,-216 353.5,-222 353.5,-228 353.5,-228 353.5,-267 353.5,-267 353.5,-273 347.5,-279 341.5,-279"/>
<text text-anchor="middle" x="306" y="-267" font-family="sans" font-size="10.00">find_family</text>
<text text-anchor="middle" x="306" y="-256" font-family="sans" font-size="10.00">coverage: 100.0</text>
<text text-anchor="middle" x="306" y="-245" font-family="sans" font-size="10.00">eval: 0e+00</text>
<text text-anchor="middle" x="306" y="-234" font-family="sans" font-size="10.00">pid: 100.0</text>
<text text-anchor="middle" x="306" y="-223" font-family="sans" font-size="10.00">seed: DpdA2</text>
</g>
<!-- 3&#45;&gt;9 -->
<g id="edge15" class="edge">
<title>3&#45;&gt;9</title>
<path fill="none" stroke="grey" stroke-width="2" d="M191.27,-530.3C194.79,-489.92 207.11,-388.8 246,-315 250.69,-306.1 256.84,-297.45 263.41,-289.5"/>
<polygon fill="grey" stroke="grey" stroke-width="2" points="265.94,-291.93 269.89,-282.1 260.67,-287.32 265.94,-291.93"/>
</g>
<!-- 10 -->
<g id="node11" class="node">
<title>10</title>
<path fill="none" stroke="#d86e56" stroke-width="2" d="M335.5,-108C335.5,-108 262.5,-108 262.5,-108 256.5,-108 250.5,-102 250.5,-96 250.5,-96 250.5,-84 250.5,-84 250.5,-78 256.5,-72 262.5,-72 262.5,-72 335.5,-72 335.5,-72 341.5,-72 347.5,-78 347.5,-84 347.5,-84 347.5,-96 347.5,-96 347.5,-102 341.5,-108 335.5,-108"/>
<text text-anchor="middle" x="299" y="-87.5" font-family="sans" font-size="10.00">report_threshold</text>
</g>
<!-- 3&#45;&gt;10 -->
<g id="edge18" class="edge">
<title>3&#45;&gt;10</title>
<path fill="none" stroke="grey" stroke-width="2" d="M125.28,-532.7C100.69,-524.53 73.65,-512.44 53,-495 17.83,-465.29 0,-452.04 0,-406 0,-406 0,-406 0,-246.5 0,-140.65 149.32,-106.75 236.91,-95.97"/>
<polygon fill="grey" stroke="grey" stroke-width="2" points="237.08,-99.47 246.62,-94.85 236.29,-92.52 237.08,-99.47"/>
</g>
<!-- 11 -->
<g id="node12" class="node">
<title>11</title>
<path fill="none" stroke="#80d856" stroke-width="2" stroke-dasharray="5,2" d="M463,-180C463,-180 365,-180 365,-180 359,-180 353,-174 353,-168 353,-168 353,-156 353,-156 353,-150 359,-144 365,-144 365,-144 463,-144 463,-144 469,-144 475,-150 475,-156 475,-156 475,-168 475,-168 475,-174 469,-180 463,-180"/>
<text text-anchor="middle" x="414" y="-159.5" font-family="sans" font-size="10.00">blast2threshold_table</text>
</g>
<!-- 3&#45;&gt;11 -->
<g id="edge19" class="edge">
<title>3&#45;&gt;11</title>
<path fill="none" stroke="grey" stroke-width="2" d="M178.28,-530.02C144.46,-475.71 54.06,-311.22 133,-216 146.17,-200.12 260.74,-182.51 339.45,-172.12"/>
<polygon fill="grey" stroke="grey" stroke-width="2" points="339.78,-175.61 349.24,-170.84 338.87,-168.66 339.78,-175.61"/>
</g>
<!-- 13 -->
<g id="node14" class="node">
<title>13</title>
<path fill="none" stroke="#80d856" stroke-width="2" stroke-dasharray="5,2" d="M240,-180C240,-180 142,-180 142,-180 136,-180 130,-174 130,-168 130,-168 130,-156 130,-156 130,-150 136,-144 142,-144 142,-144 240,-144 240,-144 246,-144 252,-150 252,-156 252,-156 252,-168 252,-168 252,-174 246,-180 240,-180"/>
<text text-anchor="middle" x="191" y="-159.5" font-family="sans" font-size="10.00">blast2threshold_table</text>
</g>
<!-- 3&#45;&gt;13 -->
<g id="edge25" class="edge">
<title>3&#45;&gt;13</title>
<path fill="none" stroke="grey" stroke-width="2" d="M147.26,-530.11C102.3,-508.11 38,-466.13 38,-406 38,-406 38,-406 38,-332 38,-279.35 28.39,-256.52 62,-216 76.15,-198.94 96.67,-187.31 117.2,-179.4"/>
<polygon fill="grey" stroke="grey" stroke-width="2" points="118.12,-182.79 126.39,-176.16 115.79,-176.18 118.12,-182.79"/>
</g>
<!-- 4 -->
<g id="node5" class="node">
<title>4</title>
<path fill="none" stroke="#d85656" stroke-width="2" stroke-dasharray="5,2" d="M628.5,-567C628.5,-567 515.5,-567 515.5,-567 509.5,-567 503.5,-561 503.5,-555 503.5,-555 503.5,-543 503.5,-543 503.5,-537 509.5,-531 515.5,-531 515.5,-531 628.5,-531 628.5,-531 634.5,-531 640.5,-537 640.5,-543 640.5,-543 640.5,-555 640.5,-555 640.5,-561 634.5,-567 628.5,-567"/>
<text text-anchor="middle" x="572" y="-546.5" font-family="sans" font-size="10.00">fetch_proteins_database</text>
</g>
<!-- 4&#45;&gt;2 -->
<g id="edge5" class="edge">
<title>4&#45;&gt;2</title>
<path fill="none" stroke="grey" stroke-width="2" d="M598.91,-530.12C631.47,-506.1 682,-460.1 682,-406 682,-406 682,-406 682,-332 682,-279.35 691.02,-257.01 658,-216 642.87,-197.21 619.69,-184.88 597.8,-176.88"/>
<polygon fill="grey" stroke="grey" stroke-width="2" points="598.94,-173.58 588.35,-173.73 596.72,-180.22 598.94,-173.58"/>
</g>
<!-- 4&#45;&gt;8 -->
<g id="edge12" class="edge">
<title>4&#45;&gt;8</title>
<path fill="none" stroke="grey" stroke-width="2" d="M563.67,-530.34C560.41,-523.43 556.59,-515.31 552.93,-507.56"/>
<polygon fill="grey" stroke="grey" stroke-width="2" points="556.16,-506.19 548.73,-498.64 549.83,-509.18 556.16,-506.19"/>
</g>
<!-- 4&#45;&gt;11 -->
<g id="edge22" class="edge">
<title>4&#45;&gt;11</title>
<path fill="none" stroke="grey" stroke-width="2" d="M579.04,-530.39C589,-503.87 606,-451.88 606,-406 606,-406 606,-406 606,-332 606,-279.76 621.37,-255.35 587,-216 580,-207.99 531.98,-193.62 488.3,-181.86"/>
<polygon fill="grey" stroke="grey" stroke-width="2" points="489.33,-178.51 478.76,-179.32 487.53,-185.28 489.33,-178.51"/>
</g>
<!-- 4&#45;&gt;13 -->
<g id="edge28" class="edge">
<title>4&#45;&gt;13</title>
<path fill="none" stroke="grey" stroke-width="2" d="M502.52,-531.07C435.09,-512.32 332.09,-477.35 256,-423 187.51,-374.08 162.13,-357.97 133,-279 123.31,-252.73 121.71,-241.62 133,-216 137.47,-205.86 144.94,-196.82 153.06,-189.21"/>
<polygon fill="grey" stroke="grey" stroke-width="2" points="155.11,-192.06 160.44,-182.9 150.57,-186.73 155.11,-192.06"/>
</g>
<!-- 5&#45;&gt;2 -->
<g id="edge6" class="edge">
<title>5&#45;&gt;2</title>
<path fill="none" stroke="grey" stroke-width="2" d="M535.23,-215.41C535.75,-208.29 536.29,-200.72 536.8,-193.62"/>
<polygon fill="grey" stroke="grey" stroke-width="2" points="540.28,-194.02 537.51,-183.8 533.3,-193.52 540.28,-194.02"/>
</g>
<!-- 5&#45;&gt;11 -->
<g id="edge21" class="edge">
<title>5&#45;&gt;11</title>
<path fill="none" stroke="grey" stroke-width="2" d="M488.35,-215.17C475.73,-206.31 462.15,-196.79 450.1,-188.33"/>
<polygon fill="grey" stroke="grey" stroke-width="2" points="452.2,-185.53 442.01,-182.65 448.18,-191.26 452.2,-185.53"/>
</g>
<!-- 6 -->
<g id="node7" class="node">
<title>6</title>
<path fill="none" stroke="#d87d56" stroke-width="2" stroke-dasharray="5,2" d="M341,-351C341,-351 267,-351 267,-351 261,-351 255,-345 255,-339 255,-339 255,-327 255,-327 255,-321 261,-315 267,-315 267,-315 341,-315 341,-315 347,-315 353,-321 353,-327 353,-327 353,-339 353,-339 353,-345 347,-351 341,-351"/>
<text text-anchor="middle" x="304" y="-330.5" font-family="sans" font-size="10.00">diamond_cluster</text>
</g>
<!-- 6&#45;&gt;5 -->
<g id="edge8" class="edge">
<title>6&#45;&gt;5</title>
<path fill="none" stroke="grey" stroke-width="2" d="M353.68,-320.08C386.43,-311.53 430.27,-298.79 475.78,-280.05"/>
<polygon fill="grey" stroke="grey" stroke-width="2" points="477.05,-283.31 484.91,-276.2 474.33,-276.86 477.05,-283.31"/>
</g>
<!-- 6&#45;&gt;9 -->
<g id="edge14" class="edge">
<title>6&#45;&gt;9</title>
<path fill="none" stroke="grey" stroke-width="2" d="M304.42,-314.29C304.58,-307.85 304.76,-300.25 304.94,-292.55"/>
<polygon fill="grey" stroke="grey" stroke-width="2" points="308.44,-292.78 305.18,-282.7 301.44,-292.61 308.44,-292.78"/>
</g>
<!-- 12 -->
<g id="node13" class="node">
<title>12</title>
<path fill="none" stroke="#56d892" stroke-width="2" stroke-dasharray="5,2" d="M458,-279C458,-279 384,-279 384,-279 378,-279 372,-273 372,-267 372,-267 372,-228 372,-228 372,-222 378,-216 384,-216 384,-216 458,-216 458,-216 464,-216 470,-222 470,-228 470,-228 470,-267 470,-267 470,-273 464,-279 458,-279"/>
<text text-anchor="middle" x="421" y="-267" font-family="sans" font-size="10.00">diamond_realign</text>
<text text-anchor="middle" x="421" y="-256" font-family="sans" font-size="10.00">cov: 97.9</text>
<text text-anchor="middle" x="421" y="-245" font-family="sans" font-size="10.00">eval: 3e&#45;146</text>
<text text-anchor="middle" x="421" y="-234" font-family="sans" font-size="10.00">pid: 63.0</text>
<text text-anchor="middle" x="421" y="-223" font-family="sans" font-size="10.00">seed: DpdA1</text>
</g>
<!-- 6&#45;&gt;12 -->
<g id="edge23" class="edge">
<title>6&#45;&gt;12</title>
<path fill="none" stroke="grey" stroke-width="2" d="M329.1,-314.09C340.12,-306.22 353.52,-296.66 366.64,-287.3"/>
<polygon fill="grey" stroke="grey" stroke-width="2" points="368.48,-290.28 374.58,-281.63 364.41,-284.59 368.48,-290.28"/>
</g>
<!-- 14 -->
<g id="node15" class="node">
<title>14</title>
<path fill="none" stroke="#56d892" stroke-width="2" stroke-dasharray="5,2" d="M228,-279C228,-279 154,-279 154,-279 148,-279 142,-273 142,-267 142,-267 142,-228 142,-228 142,-222 148,-216 154,-216 154,-216 228,-216 228,-216 234,-216 240,-222 240,-228 240,-228 240,-267 240,-267 240,-273 234,-279 228,-279"/>
<text text-anchor="middle" x="191" y="-267" font-family="sans" font-size="10.00">diamond_realign</text>
<text text-anchor="middle" x="191" y="-256" font-family="sans" font-size="10.00">cov: 100.0</text>
<text text-anchor="middle" x="191" y="-245" font-family="sans" font-size="10.00">eval: 0e+00</text>
<text text-anchor="middle" x="191" y="-234" font-family="sans" font-size="10.00">pid: 100.0</text>
<text text-anchor="middle" x="191" y="-223" font-family="sans" font-size="10.00">seed: DpdA2</text>
</g>
<!-- 6&#45;&gt;14 -->
<g id="edge29" class="edge">
<title>6&#45;&gt;14</title>
<path fill="none" stroke="grey" stroke-width="2" d="M279.76,-314.09C269.22,-306.3 256.43,-296.85 243.88,-287.58"/>
<polygon fill="grey" stroke="grey" stroke-width="2" points="246.01,-284.79 235.88,-281.67 241.85,-290.42 246.01,-284.79"/>
</g>
<!-- 7 -->
<g id="node8" class="node">
<title>7</title>
<path fill="none" stroke="#56d8b9" stroke-width="2" stroke-dasharray="5,2" d="M363,-423C363,-423 277,-423 277,-423 271,-423 265,-417 265,-411 265,-411 265,-399 265,-399 265,-393 271,-387 277,-387 277,-387 363,-387 363,-387 369,-387 375,-393 375,-399 375,-399 375,-411 375,-411 375,-417 369,-423 363,-423"/>
<text text-anchor="middle" x="320" y="-402.5" font-family="sans" font-size="10.00">diamond_database</text>
</g>
<!-- 7&#45;&gt;6 -->
<g id="edge10" class="edge">
<title>7&#45;&gt;6</title>
<path fill="none" stroke="grey" stroke-width="2" d="M315.96,-386.34C314.44,-379.67 312.66,-371.89 310.95,-364.39"/>
<polygon fill="grey" stroke="grey" stroke-width="2" points="314.41,-363.82 308.77,-354.85 307.58,-365.38 314.41,-363.82"/>
</g>
<!-- 7&#45;&gt;12 -->
<g id="edge24" class="edge">
<title>7&#45;&gt;12</title>
<path fill="none" stroke="grey" stroke-width="2" d="M335.07,-386.35C343.39,-376.27 353.69,-363.24 362,-351 374.98,-331.86 387.96,-309.73 398.43,-290.93"/>
<polygon fill="grey" stroke="grey" stroke-width="2" points="401.39,-292.82 403.14,-282.37 395.25,-289.45 401.39,-292.82"/>
</g>
<!-- 7&#45;&gt;14 -->
<g id="edge30" class="edge">
<title>7&#45;&gt;14</title>
<path fill="none" stroke="grey" stroke-width="2" d="M288.67,-386.14C274.43,-376.94 258.1,-364.77 246,-351 230.66,-333.54 217.99,-311.05 208.7,-291.6"/>
<polygon fill="grey" stroke="grey" stroke-width="2" points="211.97,-290.33 204.62,-282.7 205.6,-293.25 211.97,-290.33"/>
</g>
<!-- 8&#45;&gt;7 -->
<g id="edge11" class="edge">
<title>8&#45;&gt;7</title>
<path fill="none" stroke="grey" stroke-width="2" d="M499.07,-463.18C494.66,-461.77 490.23,-460.35 486,-459 453.71,-448.67 417.88,-437.23 387.8,-427.62"/>
<polygon fill="grey" stroke="grey" stroke-width="2" points="389.19,-424.39 378.6,-424.69 387.06,-431.06 389.19,-424.39"/>
</g>
<!-- 9&#45;&gt;2 -->
<g id="edge7" class="edge">
<title>9&#45;&gt;2</title>
<path fill="none" stroke="grey" stroke-width="2" d="M354.19,-219.86C357.14,-218.49 360.09,-217.2 363,-216 411.34,-196.11 428.03,-196.17 480.62,-180.93"/>
<polygon fill="grey" stroke="grey" stroke-width="2" points="481.3,-184.38 489.9,-178.18 479.31,-177.67 481.3,-184.38"/>
</g>
<!-- 9&#45;&gt;13 -->
<g id="edge27" class="edge">
<title>9&#45;&gt;13</title>
<path fill="none" stroke="grey" stroke-width="2" d="M262.85,-215.17C250.65,-206.31 237.53,-196.79 225.89,-188.33"/>
<polygon fill="grey" stroke="grey" stroke-width="2" points="228.27,-185.74 218.12,-182.69 224.16,-191.4 228.27,-185.74"/>
</g>
<!-- 10&#45;&gt;0 -->
<g id="edge2" class="edge">
<title>10&#45;&gt;0</title>
<path fill="none" stroke="grey" stroke-width="2" d="M310.86,-71.34C315.72,-64.1 321.47,-55.53 326.9,-47.45"/>
<polygon fill="grey" stroke="grey" stroke-width="2" points="329.62,-49.67 332.29,-39.41 323.81,-45.77 329.62,-49.67"/>
</g>
<!-- 11&#45;&gt;10 -->
<g id="edge16" class="edge">
<title>11&#45;&gt;10</title>
<path fill="none" stroke="grey" stroke-width="2" d="M384.68,-143.15C370.9,-134.76 354.24,-124.62 339.29,-115.52"/>
<polygon fill="grey" stroke="grey" stroke-width="2" points="341.21,-112.6 330.85,-110.39 337.57,-118.58 341.21,-112.6"/>
</g>
<!-- 12&#45;&gt;11 -->
<g id="edge20" class="edge">
<title>12&#45;&gt;11</title>
<path fill="none" stroke="grey" stroke-width="2" d="M418.39,-215.41C417.8,-208.29 417.16,-200.72 416.57,-193.62"/>
<polygon fill="grey" stroke="grey" stroke-width="2" points="420.07,-193.47 415.74,-183.79 413.09,-194.05 420.07,-193.47"/>
</g>
<!-- 13&#45;&gt;10 -->
<g id="edge17" class="edge">
<title>13&#45;&gt;10</title>
<path fill="none" stroke="grey" stroke-width="2" d="M218.53,-143.15C231.35,-134.84 246.82,-124.82 260.75,-115.79"/>
<polygon fill="grey" stroke="grey" stroke-width="2" points="262.49,-118.83 268.98,-110.46 258.68,-112.96 262.49,-118.83"/>
</g>
<!-- 14&#45;&gt;13 -->
<g id="edge26" class="edge">
<title>14&#45;&gt;13</title>
<path fill="none" stroke="grey" stroke-width="2" d="M191,-215.41C191,-208.29 191,-200.72 191,-193.62"/>
<polygon fill="grey" stroke="grey" stroke-width="2" points="194.5,-193.81 191,-183.81 187.5,-193.81 194.5,-193.81"/>
</g>
</g>
</svg>
